<svg width="562" height="74" viewBox="0 0 562 74" fill="none" xmlns="http://www.w3.org/2000/svg">
<g clip-path="url(#clip0_152_69)">
<path opacity="0.05" d="M633.309 60.251C596.455 58.8841 529.513 52.4171 456.409 53.6897C383.305 54.9624 354.909 66.3597 282.409 66.3597C209.909 66.3597 180.909 53.3598 108.409 53.6897C35.9092 54.0197 -14.2366 84.9594 -65.5908 67.9435C-116.945 50.9276 -313.299 15.5666 -138.091 -27.9865C37.1176 -71.5397 585.097 -117.544 775.409 -141.112" fill="url(#paint0_linear_152_69)"/>
<path d="M605.718 39.5781C568.864 38.2112 501.923 31.7442 428.818 33.0169C355.714 34.2895 327.318 45.6869 254.818 45.6869C182.318 45.6869 153.318 32.6869 80.8184 33.0169C8.31836 33.3468 -41.8275 64.2865 -93.1816 47.2706C-144.536 30.2547 -340.89 -5.10625 -165.682 -48.6594C9.52673 -92.2125 557.506 -138.217 747.818 -161.784" fill="#3E60A7" fill-opacity="0.81"/>
<path d="M633.309 26.4126C596.455 25.0457 529.513 18.5787 456.409 19.8513C383.305 21.124 354.909 32.5214 282.409 32.5214C209.909 32.5214 180.909 19.5214 108.409 19.8513C35.9092 20.1813 -14.2366 51.121 -65.5908 34.1051C-116.945 17.0892 -313.299 -18.2718 -138.091 -61.8249C37.1176 -105.378 585.097 -151.382 775.409 -174.95" fill="url(#paint1_linear_152_69)"/>
</g>
<defs>
<linearGradient id="paint0_linear_152_69" x1="-48465.5" y1="73.0493" x2="-48465.5" y2="-21343" gradientUnits="userSpaceOnUse">
<stop stop-color="#212885"/>
<stop offset="1" stop-color="#26408B"/>
</linearGradient>
<linearGradient id="paint1_linear_152_69" x1="-48465.5" y1="39.2109" x2="-48465.5" y2="-21376.9" gradientUnits="userSpaceOnUse">
<stop stop-color="#212885"/>
<stop offset="1" stop-color="#26408B"/>
</linearGradient>
<clipPath id="clip0_152_69">
<rect width="562" height="74" fill="white" transform="matrix(-1 0 0 -1 562 74)"/>
</clipPath>
</defs>
</svg>
